# Blender v2.79 (sub 0) OBJ File: 'allthemodels.blend'
# www.blender.org
mtllib dest_col_jun2020.mtl
o Cube
v -0.483046 0.017654 0.402150
v -0.483046 0.492790 0.402150
v -0.388498 0.017654 -0.252211
v -0.388498 0.492790 -0.252211
v 0.483046 0.017654 0.402150
v 0.483046 0.492790 0.402150
v 0.388498 0.017654 -0.252211
v 0.388498 0.492790 -0.252211
v -0.130168 0.492790 -0.995710
v -0.130168 0.017654 -0.995710
v 0.130168 0.017654 -0.995710
v 0.130168 0.492790 -0.995710
v -0.257801 0.017654 0.428359
v -0.257801 0.492790 0.428359
v 0.257801 0.492790 0.428359
v 0.257801 0.017654 0.428359
v -0.257801 0.017654 0.748140
v -0.257801 0.492790 0.748140
v 0.257801 0.492790 0.748140
v 0.257801 0.017654 0.748140
v -0.566727 0.017654 -0.252211
v -0.643039 0.017654 0.121163
v -0.643039 0.492790 0.121163
v -0.566727 0.492790 -0.252211
v 0.566727 0.492790 -0.252211
v 0.566727 0.017654 -0.252211
v 0.643039 0.017654 0.121163
v 0.643039 0.492790 0.121163
vt 0.098705 1.000000
vt 0.049353 0.734036
vt 0.098705 0.734036
vt 0.642275 0.219265
vt 0.622669 0.468071
vt 0.456740 0.327574
vt 0.650706 0.095145
vt 0.684833 0.194421
vt 0.342417 0.185408
vt 0.515646 0.075916
vt 0.573105 0.050740
vt 0.114323 0.327574
vt 0.230689 0.050740
vt 0.299858 0.219265
vt 0.865540 0.468071
vt 0.937628 0.734036
vt 0.865540 0.734036
vt 0.215318 0.734036
vt 0.000000 0.468071
vt 0.215318 0.468071
vt 0.421823 0.734036
vt 0.215318 0.468071
vt 0.421823 0.468071
vt 0.280252 0.468071
vt 0.050111 0.147788
vt 0.128393 0.000000
vt 0.173229 0.075916
vt 0.937628 0.468071
vt 1.000000 0.734036
vt 0.937628 0.734036
vt 0.977116 0.265964
vt 0.914744 0.000000
vt 0.977116 0.000000
vt 0.000000 0.185408
vt 0.684833 0.000000
vt 0.827606 0.265964
vt 0.684833 0.265964
vt 0.827606 0.000000
vt 0.914744 0.265964
vt 0.827606 0.265964
vt 0.392527 0.147788
vt 0.470810 0.000000
vt 0.865540 0.734036
vt 0.776995 0.468071
vt 0.865540 0.468071
vt 0.708306 0.734036
vt 0.602807 0.468071
vt 0.708306 0.468071
vt 0.602807 0.468071
vt 0.499234 0.734036
vt 0.499234 0.468071
vt 0.343609 0.274416
vt 0.308289 0.095145
vt 0.342417 0.194421
vt 0.421823 0.468071
vt 0.421823 0.734036
vt 0.001192 0.274416
vt 0.000000 1.000000
vt 0.049353 0.734036
vt 0.049353 1.000000
vt 0.776995 0.734036
vt 0.776994 0.468071
vt 0.049353 1.000000
vt 0.684833 0.431782
vt 0.937628 0.468071
vt 0.000000 0.734036
vt 0.215318 0.734036
vt 0.342417 0.431782
vt 0.005275 0.071872
vt 1.000000 0.468071
vt 0.914744 0.265964
vt 0.827606 0.000000
vt 0.914744 0.000000
vt 0.347692 0.071872
vt 0.776995 0.734036
vt 0.602807 0.734036
vt 0.602807 0.734036
vt 0.414181 0.352418
vt 0.071764 0.352418
vt 0.000000 0.734036
vn -0.0000 0.0000 -1.0000
vn 0.0000 1.0000 0.0000
vn 0.0000 -1.0000 0.0000
vn -0.9446 0.0000 -0.3282
vn 0.9446 0.0000 -0.3282
vn 0.1156 0.0000 0.9933
vn -0.1156 0.0000 0.9933
vn 0.0000 0.0000 1.0000
vn -1.0000 0.0000 0.0000
vn 1.0000 0.0000 0.0000
vn -0.9797 0.0000 -0.2002
vn 0.9797 0.0000 -0.2002
vn 0.8690 0.0000 0.4948
vn -0.8690 0.0000 0.4948
usemtl None
s off
f 8/1/1 26/2/1 7/3/1
f 8/4/2 9/5/2 4/6/2
f 8/4/2 28/7/2 25/8/2
f 2/9/2 15/10/2 6/11/2
f 7/12/3 1/13/3 3/14/3
f 4/6/2 6/11/2 8/4/2
f 9/15/1 11/16/1 10/17/1
f 4/18/4 10/19/4 3/20/4
f 7/21/5 12/22/5 8/23/5
f 3/14/3 11/24/3 7/12/3
f 16/25/3 17/26/3 13/27/3
f 6/28/6 16/29/6 5/30/6
f 1/31/7 14/32/7 2/33/7
f 5/34/3 13/27/3 1/13/3
f 19/35/8 17/36/8 20/37/8
f 13/38/9 18/39/9 14/40/9
f 14/41/2 19/42/2 15/10/2
f 15/43/10 20/44/10 16/45/10
f 23/46/11 21/47/11 22/48/11
f 26/49/12 28/50/12 27/51/12
f 4/6/2 23/52/2 2/9/2
f 3/14/3 22/53/3 21/54/3
f 5/55/13 28/50/13 6/56/13
f 7/12/3 27/57/3 5/34/3
f 4/58/1 21/59/1 24/60/1
f 2/61/14 22/48/14 1/62/14
f 8/1/1 25/63/1 26/2/1
f 8/4/2 12/64/2 9/5/2
f 8/4/2 6/11/2 28/7/2
f 2/9/2 14/41/2 15/10/2
f 7/12/3 5/34/3 1/13/3
f 4/6/2 2/9/2 6/11/2
f 9/15/1 12/65/1 11/16/1
f 4/18/4 9/66/4 10/19/4
f 7/21/5 11/67/5 12/22/5
f 3/14/3 10/68/3 11/24/3
f 16/25/3 20/69/3 17/26/3
f 6/28/6 15/70/6 16/29/6
f 1/31/7 13/71/7 14/32/7
f 5/34/3 16/25/3 13/27/3
f 19/35/8 18/72/8 17/36/8
f 13/38/9 17/73/9 18/39/9
f 14/41/2 18/74/2 19/42/2
f 15/43/10 19/75/10 20/44/10
f 23/46/11 24/76/11 21/47/11
f 26/49/12 25/77/12 28/50/12
f 4/6/2 24/78/2 23/52/2
f 3/14/3 1/13/3 22/53/3
f 5/55/13 27/51/13 28/50/13
f 7/12/3 26/79/3 27/57/3
f 4/58/1 3/80/1 21/59/1
f 2/61/14 23/46/14 22/48/14
