# Blender v2.79 (sub 0) OBJ File: 'allthemodels.blend'
# www.blender.org
mtllib flagship_col_jun2020.mtl
o Cube
v -0.465252 0.527956 -0.140979
v -0.465252 -0.066972 -0.465252
v -0.465252 -0.066972 -0.140979
v 0.465252 0.527956 -0.465252
v -0.283696 0.527956 -1.884950
v -0.465252 0.527956 -0.465252
v 0.465252 -0.066972 -0.140979
v 0.465252 -0.066972 -0.465252
v 0.465252 0.527956 -0.140979
v 0.637766 -0.066972 -0.057906
v 0.283696 -0.066972 -1.884950
v -0.283696 -0.066972 -1.884950
v 0.283696 0.527956 -1.884950
v -0.637766 -0.066972 -0.057906
v -0.794019 0.527956 0.432257
v -0.637766 0.527956 -0.057906
v 0.637766 0.527956 -0.057906
v 0.794019 0.527956 0.881120
v 0.794019 0.527956 0.432257
v 0.794019 -0.066972 0.432257
v -0.794019 -0.066972 0.432257
v 0.794019 -0.066972 0.881120
v -0.324430 -0.066972 0.912238
v -0.794019 -0.066972 0.881120
v -0.794019 0.527956 0.881120
v -0.324430 0.527956 0.912238
v 0.324430 0.527956 1.325715
v 0.324430 0.527956 0.912238
v 0.324430 -0.066972 0.912238
v -0.324430 -0.066972 1.325715
v 0.324430 -0.066972 1.325715
v -0.324430 0.527956 1.325715
vt 0.702905 0.395138
vt 0.908837 0.322326
vt 0.908837 0.395138
vt 0.630145 0.403662
vt 0.464393 0.723645
vt 0.424213 0.403662
vt 0.702905 0.467950
vt 0.908837 0.395138
vt 0.908837 0.467950
vt 0.908837 0.419449
vt 0.947017 0.629173
vt 0.908837 0.629173
vt 0.072760 0.403662
vt 0.278692 0.330575
vt 0.278692 0.403662
vt 0.630145 0.330575
vt 0.555466 0.723645
vt 0.681037 0.933369
vt 0.555466 0.933369
vt 0.702905 0.322326
vt 0.908837 0.000000
vt 0.702905 0.790276
vt 0.112941 0.723645
vt 0.205932 0.723645
vt 0.000000 0.836760
vt 0.000000 0.723645
vt 0.910757 0.790276
vt 0.948936 1.000000
vt 0.910757 1.000000
vt 0.072760 0.330575
vt 0.316872 0.311851
vt 0.424213 0.330575
vt 0.668324 0.311851
vt 0.351453 0.201374
vt 0.702905 0.100206
vt 0.702905 0.201374
vt 0.386033 0.311851
vt 0.205932 0.937547
vt 0.411864 0.824431
vt 0.411864 0.937547
vt 0.034581 0.311851
vt 0.351453 0.201374
vt 0.000000 0.100206
vt 0.247527 0.093193
vt 0.351453 0.100206
vt 0.205932 0.824431
vt 0.411864 0.723645
vt 0.000000 0.201374
vt 0.205932 0.836760
vt 0.000000 0.937547
vt 0.455378 0.093193
vt 0.598979 0.000000
vt 0.598979 0.093193
vt 0.806831 0.790276
vt 0.910757 1.000000
vt 0.806831 1.000000
vt 0.351453 0.100206
vt 0.702905 0.790276
vt 0.806831 1.000000
vt 0.702905 1.000000
vt 0.411864 0.723645
vt 0.555466 0.933369
vt 0.411864 0.933369
vt 1.000000 0.419449
vt 0.908837 0.209724
vt 1.000000 0.209724
vt 0.103926 0.093193
vt 0.247527 0.000000
vt 1.000000 0.209724
vt 0.908837 0.000000
vt 1.000000 0.000000
vt 0.589964 0.723645
vt 0.702905 0.395138
vt 0.947017 0.419449
vt 0.681037 0.723645
vt 0.702905 0.000000
vt 0.908837 0.790276
vt 0.238512 0.723645
vt 0.948936 0.790276
vt 0.205932 0.723645
vt 0.205932 0.937547
vt 0.455378 0.000000
vt 0.910757 0.790276
vt 0.806831 0.790276
vt 0.555466 0.723645
vt 0.908837 0.419449
vt 0.103926 0.000000
vt 0.908837 0.209724
vn -1.0000 0.0000 0.0000
vn 0.0000 1.0000 0.0000
vn 1.0000 0.0000 0.0000
vn 0.4339 0.0000 -0.9010
vn 0.0000 -1.0000 -0.0000
vn 0.0000 0.0000 -1.0000
vn -0.9919 0.0000 -0.1269
vn 0.9919 0.0000 -0.1269
vn -0.9528 0.0000 -0.3037
vn -0.4339 0.0000 -0.9010
vn 0.9528 0.0000 -0.3037
vn -0.0661 -0.0000 0.9978
vn 0.0661 -0.0000 0.9978
vn 0.0000 -0.0000 1.0000
usemtl None.001
s 1
f 1/1/1 2/2/1 3/3/1
f 4/4/2 5/5/2 6/6/2
f 4/7/3 7/8/3 8/9/3
f 9/10/4 10/11/4 7/12/4
f 8/13/5 3/14/5 2/15/5
f 6/6/2 9/16/2 4/4/2
f 5/17/6 11/18/6 12/19/6
f 6/20/7 12/21/7 2/2/7
f 8/9/8 13/22/8 4/7/8
f 2/15/5 11/23/5 8/13/5
f 14/24/9 15/25/9 16/26/9
f 3/27/10 16/28/10 1/29/10
f 7/30/5 14/31/5 3/14/5
f 1/32/2 17/33/2 9/16/2
f 15/34/2 18/35/2 19/36/2
f 16/37/2 19/36/2 17/33/2
f 17/38/11 20/39/11 10/40/11
f 10/41/5 21/42/5 14/31/5
f 22/43/5 23/44/5 24/45/5
f 19/46/3 22/47/3 20/39/3
f 20/48/5 24/45/5 21/42/5
f 21/49/1 25/50/1 15/25/1
f 26/51/2 27/52/2 28/53/2
f 24/54/12 26/55/12 25/56/12
f 25/57/2 28/53/2 18/35/2
f 18/58/13 29/59/13 22/60/13
f 27/61/14 30/62/14 31/63/14
f 28/64/3 31/65/3 29/66/3
f 29/67/5 30/68/5 23/44/5
f 23/69/1 32/70/1 26/71/1
f 1/1/1 6/20/1 2/2/1
f 4/4/2 13/72/2 5/5/2
f 4/7/3 9/73/3 7/8/3
f 9/10/4 17/74/4 10/11/4
f 8/13/5 7/30/5 3/14/5
f 6/6/2 1/32/2 9/16/2
f 5/17/6 13/75/6 11/18/6
f 6/20/7 5/76/7 12/21/7
f 8/9/8 11/77/8 13/22/8
f 2/15/5 12/78/5 11/23/5
f 14/24/9 21/49/9 15/25/9
f 3/27/10 14/79/10 16/28/10
f 7/30/5 10/41/5 14/31/5
f 1/32/2 16/37/2 17/33/2
f 15/34/2 25/57/2 18/35/2
f 16/37/2 15/34/2 19/36/2
f 17/38/11 19/46/11 20/39/11
f 10/41/5 20/48/5 21/42/5
f 22/43/5 29/67/5 23/44/5
f 19/46/3 18/80/3 22/47/3
f 20/48/5 22/43/5 24/45/5
f 21/49/1 24/81/1 25/50/1
f 26/51/2 32/82/2 27/52/2
f 24/54/12 23/83/12 26/55/12
f 25/57/2 26/51/2 28/53/2
f 18/58/13 28/84/13 29/59/13
f 27/61/14 32/85/14 30/62/14
f 28/64/3 27/86/3 31/65/3
f 29/67/5 31/87/5 30/68/5
f 23/69/1 30/88/1 32/70/1
